<?xml version="1.0" encoding="UTF-8" standalone="no"?>
<!DOCTYPE svg PUBLIC "-//W3C//DTD SVG 1.1//EN"
 "http://www.w3.org/Graphics/SVG/1.1/DTD/svg11.dtd">
<!-- Generated by graphviz version 2.43.0 (0)
 -->
<!-- Title: %3 Pages: 1 -->
<svg width="1101pt" height="77pt"
 viewBox="0.00 0.00 1101.39 76.89" xmlns="http://www.w3.org/2000/svg" xmlns:xlink="http://www.w3.org/1999/xlink">
<g id="graph0" class="graph" transform="scale(1 1) rotate(0) translate(4 72.89)">
<title>%3</title>
<polygon fill="white" stroke="transparent" points="-4,4 -4,-72.89 1097.39,-72.89 1097.39,4 -4,4"/>
<!-- start -->
<g id="node1" class="node">
<title>start</title>
<ellipse fill="none" stroke="black" cx="34.45" cy="-34.45" rx="34.39" ry="34.39"/>
<text text-anchor="middle" x="34.45" y="-30.75" font-family="Times,serif" font-size="14.00">Start</text>
</g>
<!-- upload -->
<g id="node2" class="node">
<title>upload</title>
<polygon fill="none" stroke="black" points="295.89,-52.45 104.89,-52.45 104.89,-16.45 295.89,-16.45 295.89,-52.45"/>
<text text-anchor="middle" x="200.39" y="-30.75" font-family="Times,serif" font-size="14.00">Upload &amp; link document</text>
</g>
<!-- start&#45;&gt;upload -->
<g id="edge1" class="edge">
<title>start&#45;&gt;upload</title>
<path fill="none" stroke="black" d="M69.02,-34.45C76.86,-34.45 85.63,-34.45 94.8,-34.45"/>
<polygon fill="black" stroke="black" points="94.89,-37.95 104.89,-34.45 94.89,-30.95 94.89,-37.95"/>
</g>
<!-- approve -->
<g id="node3" class="node">
<title>approve</title>
<polygon fill="none" stroke="black" points="459.89,-52.45 331.89,-52.45 331.89,-16.45 459.89,-16.45 459.89,-52.45"/>
<text text-anchor="middle" x="395.89" y="-30.75" font-family="Times,serif" font-size="14.00">Approve &amp; sign</text>
</g>
<!-- upload&#45;&gt;approve -->
<g id="edge2" class="edge">
<title>upload&#45;&gt;approve</title>
<path fill="none" stroke="black" d="M296.16,-34.45C304.74,-34.45 313.34,-34.45 321.69,-34.45"/>
<polygon fill="black" stroke="black" points="321.73,-37.95 331.73,-34.45 321.73,-30.95 321.73,-37.95"/>
</g>
<!-- sync_drive -->
<g id="node4" class="node">
<title>sync_drive</title>
<polygon fill="none" stroke="black" points="662.89,-52.45 495.89,-52.45 495.89,-16.45 662.89,-16.45 662.89,-52.45"/>
<text text-anchor="middle" x="579.39" y="-30.75" font-family="Times,serif" font-size="14.00">Sync to Google Drive</text>
</g>
<!-- approve&#45;&gt;sync_drive -->
<g id="edge3" class="edge">
<title>approve&#45;&gt;sync_drive</title>
<path fill="none" stroke="black" d="M460.12,-34.45C468.35,-34.45 476.92,-34.45 485.52,-34.45"/>
<polygon fill="black" stroke="black" points="485.6,-37.95 495.6,-34.45 485.6,-30.95 485.6,-37.95"/>
</g>
<!-- access -->
<g id="node5" class="node">
<title>access</title>
<polygon fill="none" stroke="black" points="817.89,-52.45 698.89,-52.45 698.89,-16.45 817.89,-16.45 817.89,-52.45"/>
<text text-anchor="middle" x="758.39" y="-30.75" font-family="Times,serif" font-size="14.00">Access control</text>
</g>
<!-- sync_drive&#45;&gt;access -->
<g id="edge4" class="edge">
<title>sync_drive&#45;&gt;access</title>
<path fill="none" stroke="black" d="M662.93,-34.45C671.52,-34.45 680.18,-34.45 688.59,-34.45"/>
<polygon fill="black" stroke="black" points="688.71,-37.95 698.71,-34.45 688.71,-30.95 688.71,-37.95"/>
</g>
<!-- cleanup -->
<g id="node6" class="node">
<title>cleanup</title>
<polygon fill="none" stroke="black" points="990.89,-52.45 853.89,-52.45 853.89,-16.45 990.89,-16.45 990.89,-52.45"/>
<text text-anchor="middle" x="922.39" y="-30.75" font-family="Times,serif" font-size="14.00">Handle deletions</text>
</g>
<!-- access&#45;&gt;cleanup -->
<g id="edge5" class="edge">
<title>access&#45;&gt;cleanup</title>
<path fill="none" stroke="black" d="M818.34,-34.45C826.51,-34.45 835,-34.45 843.45,-34.45"/>
<polygon fill="black" stroke="black" points="843.7,-37.95 853.7,-34.45 843.7,-30.95 843.7,-37.95"/>
</g>
<!-- end -->
<g id="node7" class="node">
<title>end</title>
<ellipse fill="none" stroke="black" cx="1060.14" cy="-34.45" rx="29.47" ry="29.47"/>
<ellipse fill="none" stroke="black" cx="1060.14" cy="-34.45" rx="33.5" ry="33.5"/>
<text text-anchor="middle" x="1060.14" y="-30.75" font-family="Times,serif" font-size="14.00">End</text>
</g>
<!-- cleanup&#45;&gt;end -->
<g id="edge6" class="edge">
<title>cleanup&#45;&gt;end</title>
<path fill="none" stroke="black" d="M991.27,-34.45C999.84,-34.45 1008.41,-34.45 1016.44,-34.45"/>
<polygon fill="black" stroke="black" points="1016.63,-37.95 1026.63,-34.45 1016.63,-30.95 1016.63,-37.95"/>
</g>
</g>
</svg>
