<?xml version="1.0" encoding="UTF-8" standalone="no"?>
<!DOCTYPE svg PUBLIC "-//W3C//DTD SVG 1.1//EN"
 "http://www.w3.org/Graphics/SVG/1.1/DTD/svg11.dtd">
<!-- Generated by graphviz version 2.43.0 (0)
 -->
<!-- Title: ER Pages: 1 -->
<svg width="1817pt" height="314pt"
 viewBox="0.00 0.00 1817.00 314.00" xmlns="http://www.w3.org/2000/svg" xmlns:xlink="http://www.w3.org/1999/xlink">
<g id="graph0" class="graph" transform="scale(1 1) rotate(0) translate(4 310)">
<title>ER</title>
<polygon fill="white" stroke="transparent" points="-4,4 -4,-310 1813,-310 1813,4 -4,4"/>
<!-- Customer -->
<g id="node1" class="node">
<title>Customer</title>
<polygon fill="none" stroke="black" points="37.5,-203.5 37.5,-239.5 123.5,-239.5 123.5,-203.5 37.5,-203.5"/>
<text text-anchor="middle" x="80.5" y="-217.8" font-family="Times,serif" font-size="14.00">Customer</text>
</g>
<!-- ServiceProject -->
<g id="node2" class="node">
<title>ServiceProject</title>
<polygon fill="none" stroke="black" points="222,-143.5 222,-179.5 343,-179.5 343,-143.5 222,-143.5"/>
<text text-anchor="middle" x="282.5" y="-157.8" font-family="Times,serif" font-size="14.00">ServiceProject</text>
</g>
<!-- Customer&#45;&gt;ServiceProject -->
<g id="edge1" class="edge">
<title>Customer&#45;&gt;ServiceProject</title>
<path fill="none" stroke="black" d="M123.63,-215.33C168.1,-215.33 231,-215.33 231,-215.33 231,-215.33 231,-189.73 231,-189.73"/>
<polygon fill="black" stroke="black" points="234.5,-189.73 231,-179.73 227.5,-189.73 234.5,-189.73"/>
<text text-anchor="middle" x="191.5" y="-197.3" font-family="Times,serif" font-size="14.00">1..*</text>
</g>
<!-- ServiceObject -->
<g id="node3" class="node">
<title>ServiceObject</title>
<polygon fill="none" stroke="black" points="612,-111.5 612,-147.5 728,-147.5 728,-111.5 612,-111.5"/>
<text text-anchor="middle" x="670" y="-125.8" font-family="Times,serif" font-size="14.00">ServiceObject</text>
</g>
<!-- Customer&#45;&gt;ServiceObject -->
<g id="edge2" class="edge">
<title>Customer&#45;&gt;ServiceObject</title>
<path fill="none" stroke="black" d="M123.85,-227.67C259.99,-227.67 670,-227.67 670,-227.67 670,-227.67 670,-157.51 670,-157.51"/>
<polygon fill="black" stroke="black" points="673.5,-157.51 670,-147.51 666.5,-157.51 673.5,-157.51"/>
<text text-anchor="middle" x="373.5" y="-235.3" font-family="Times,serif" font-size="14.00">1..*</text>
</g>
<!-- ProjectObjectItem -->
<g id="node4" class="node">
<title>ProjectObjectItem</title>
<polygon fill="none" stroke="black" points="404,-111.5 404,-147.5 551,-147.5 551,-111.5 404,-111.5"/>
<text text-anchor="middle" x="477.5" y="-125.8" font-family="Times,serif" font-size="14.00">ProjectObjectItem</text>
</g>
<!-- ServiceProject&#45;&gt;ProjectObjectItem -->
<g id="edge3" class="edge">
<title>ServiceProject&#45;&gt;ProjectObjectItem</title>
<path fill="none" stroke="black" d="M343.33,-154C381.68,-154 424,-154 424,-154 424,-154 424,-153.36 424,-153.36"/>
<polygon fill="black" stroke="black" points="427.5,-157.56 424,-147.56 420.5,-157.56 427.5,-157.56"/>
<text text-anchor="middle" x="373.5" y="-142.3" font-family="Times,serif" font-size="14.00">1..*</text>
</g>
<!-- ServiceRequest -->
<g id="node5" class="node">
<title>ServiceRequest</title>
<polygon fill="none" stroke="black" points="789,-80.5 789,-116.5 917,-116.5 917,-80.5 789,-80.5"/>
<text text-anchor="middle" x="853" y="-94.8" font-family="Times,serif" font-size="14.00">ServiceRequest</text>
</g>
<!-- ServiceProject&#45;&gt;ServiceRequest -->
<g id="edge5" class="edge">
<title>ServiceProject&#45;&gt;ServiceRequest</title>
<path fill="none" stroke="black" d="M343.01,-160C489.84,-160 853,-160 853,-160 853,-160 853,-126.62 853,-126.62"/>
<polygon fill="black" stroke="black" points="856.5,-126.62 853,-116.62 849.5,-126.62 856.5,-126.62"/>
<text text-anchor="middle" x="581.5" y="-86.3" font-family="Times,serif" font-size="14.00">1..*</text>
</g>
<!-- Invoice -->
<g id="node11" class="node">
<title>Invoice</title>
<polygon fill="none" stroke="black" points="443.5,-166.5 443.5,-202.5 511.5,-202.5 511.5,-166.5 443.5,-166.5"/>
<text text-anchor="middle" x="477.5" y="-180.8" font-family="Times,serif" font-size="14.00">Invoice</text>
</g>
<!-- ServiceProject&#45;&gt;Invoice -->
<g id="edge13" class="edge">
<title>ServiceProject&#45;&gt;Invoice</title>
<path fill="none" stroke="black" d="M343.13,-173C343.13,-173 433.32,-173 433.32,-173"/>
<polygon fill="black" stroke="black" points="433.32,-176.5 443.32,-173 433.32,-169.5 433.32,-176.5"/>
<text text-anchor="middle" x="373.5" y="-188.3" font-family="Times,serif" font-size="14.00">1..*</text>
</g>
<!-- ServiceObject&#45;&gt;ServiceRequest -->
<g id="edge6" class="edge">
<title>ServiceObject&#45;&gt;ServiceRequest</title>
<path fill="none" stroke="black" d="M670,-111.31C670,-103.22 670,-95.5 670,-95.5 670,-95.5 779,-95.5 779,-95.5"/>
<polygon fill="black" stroke="black" points="779,-99 789,-95.5 779,-92 779,-99"/>
<text text-anchor="middle" x="758.5" y="-126.3" font-family="Times,serif" font-size="14.00">1..*</text>
</g>
<!-- ProjectObjectItem&#45;&gt;ServiceObject -->
<g id="edge4" class="edge">
<title>ProjectObjectItem&#45;&gt;ServiceObject</title>
<path fill="none" stroke="black" d="M551.1,-129.5C551.1,-129.5 602,-129.5 602,-129.5"/>
<polygon fill="black" stroke="black" points="602,-133 612,-129.5 602,-126 602,-133"/>
<text text-anchor="middle" x="581.5" y="-133.3" font-family="Times,serif" font-size="14.00">1</text>
</g>
<!-- RequestPhotoAttachmentItem -->
<g id="node6" class="node">
<title>RequestPhotoAttachmentItem</title>
<polygon fill="none" stroke="black" points="1118,-108.5 1118,-144.5 1351,-144.5 1351,-108.5 1118,-108.5"/>
<text text-anchor="middle" x="1234.5" y="-122.8" font-family="Times,serif" font-size="14.00">RequestPhotoAttachmentItem</text>
</g>
<!-- ServiceRequest&#45;&gt;RequestPhotoAttachmentItem -->
<g id="edge7" class="edge">
<title>ServiceRequest&#45;&gt;RequestPhotoAttachmentItem</title>
<path fill="none" stroke="black" d="M917.28,-112.5C917.28,-112.5 1107.82,-112.5 1107.82,-112.5"/>
<polygon fill="black" stroke="black" points="1107.82,-116 1117.82,-112.5 1107.82,-109 1107.82,-116"/>
<text text-anchor="middle" x="949" y="-126.3" font-family="Times,serif" font-size="14.00">1..*</text>
</g>
<!-- ServiceReport -->
<g id="node8" class="node">
<title>ServiceReport</title>
<polygon fill="none" stroke="black" points="981,-55.5 981,-91.5 1100,-91.5 1100,-55.5 981,-55.5"/>
<text text-anchor="middle" x="1040.5" y="-69.8" font-family="Times,serif" font-size="14.00">ServiceReport</text>
</g>
<!-- ServiceRequest&#45;&gt;ServiceReport -->
<g id="edge9" class="edge">
<title>ServiceRequest&#45;&gt;ServiceReport</title>
<path fill="none" stroke="black" d="M917,-86C917,-86 970.89,-86 970.89,-86"/>
<polygon fill="black" stroke="black" points="970.89,-89.5 980.89,-86 970.89,-82.5 970.89,-89.5"/>
<text text-anchor="middle" x="949" y="-83.3" font-family="Times,serif" font-size="14.00">1..1</text>
</g>
<!-- CustomAttachment -->
<g id="node7" class="node">
<title>CustomAttachment</title>
<polygon fill="none" stroke="black" points="1654,-83.5 1654,-119.5 1809,-119.5 1809,-83.5 1654,-83.5"/>
<text text-anchor="middle" x="1731.5" y="-97.8" font-family="Times,serif" font-size="14.00">CustomAttachment</text>
</g>
<!-- RequestPhotoAttachmentItem&#45;&gt;CustomAttachment -->
<g id="edge8" class="edge">
<title>RequestPhotoAttachmentItem&#45;&gt;CustomAttachment</title>
<path fill="none" stroke="black" d="M1351.02,-114C1351.02,-114 1643.63,-114 1643.63,-114"/>
<polygon fill="black" stroke="black" points="1643.63,-117.5 1653.63,-114 1643.63,-110.5 1643.63,-117.5"/>
<text text-anchor="middle" x="1481" y="-132.3" font-family="Times,serif" font-size="14.00">*..1</text>
</g>
<!-- ServiceReportWorkItem -->
<g id="node9" class="node">
<title>ServiceReportWorkItem</title>
<polygon fill="none" stroke="black" points="1387,-0.5 1387,-36.5 1575,-36.5 1575,-0.5 1387,-0.5"/>
<text text-anchor="middle" x="1481" y="-14.8" font-family="Times,serif" font-size="14.00">ServiceReportWorkItem</text>
</g>
<!-- ServiceReport&#45;&gt;ServiceReportWorkItem -->
<g id="edge10" class="edge">
<title>ServiceReport&#45;&gt;ServiceReportWorkItem</title>
<path fill="none" stroke="black" d="M1041,-55.49C1041,-39.45 1041,-18.5 1041,-18.5 1041,-18.5 1376.88,-18.5 1376.88,-18.5"/>
<polygon fill="black" stroke="black" points="1376.88,-22 1386.88,-18.5 1376.88,-15 1376.88,-22"/>
<text text-anchor="middle" x="1234.5" y="-22.3" font-family="Times,serif" font-size="14.00">1..*</text>
</g>
<!-- ServiceReportDocumentItem -->
<g id="node10" class="node">
<title>ServiceReportDocumentItem</title>
<polygon fill="none" stroke="black" points="1369,-55.5 1369,-91.5 1593,-91.5 1593,-55.5 1369,-55.5"/>
<text text-anchor="middle" x="1481" y="-69.8" font-family="Times,serif" font-size="14.00">ServiceReportDocumentItem</text>
</g>
<!-- ServiceReport&#45;&gt;ServiceReportDocumentItem -->
<g id="edge11" class="edge">
<title>ServiceReport&#45;&gt;ServiceReportDocumentItem</title>
<path fill="none" stroke="black" d="M1100.37,-73.5C1100.37,-73.5 1358.61,-73.5 1358.61,-73.5"/>
<polygon fill="black" stroke="black" points="1358.61,-77 1368.61,-73.5 1358.61,-70 1358.61,-77"/>
<text text-anchor="middle" x="1234.5" y="-77.3" font-family="Times,serif" font-size="14.00">1..*</text>
</g>
<!-- ServiceReportDocumentItem&#45;&gt;CustomAttachment -->
<g id="edge12" class="edge">
<title>ServiceReportDocumentItem&#45;&gt;CustomAttachment</title>
<path fill="none" stroke="black" d="M1593.06,-87.5C1593.06,-87.5 1643.99,-87.5 1643.99,-87.5"/>
<polygon fill="black" stroke="black" points="1643.99,-91 1653.99,-87.5 1643.99,-84 1643.99,-91"/>
<text text-anchor="middle" x="1623.5" y="-90.3" font-family="Times,serif" font-size="14.00">*..1</text>
</g>
<!-- PayrollEntryCustom -->
<g id="node12" class="node">
<title>PayrollEntryCustom</title>
<polygon fill="none" stroke="black" points="0,-269.5 0,-305.5 161,-305.5 161,-269.5 0,-269.5"/>
<text text-anchor="middle" x="80.5" y="-283.8" font-family="Times,serif" font-size="14.00">PayrollEntryCustom</text>
</g>
<!-- Employee -->
<g id="node13" class="node">
<title>Employee</title>
<polygon fill="none" stroke="black" points="239,-269.5 239,-305.5 326,-305.5 326,-269.5 239,-269.5"/>
<text text-anchor="middle" x="282.5" y="-283.8" font-family="Times,serif" font-size="14.00">Employee</text>
</g>
<!-- PayrollEntryCustom&#45;&gt;Employee -->
<g id="edge14" class="edge">
<title>PayrollEntryCustom&#45;&gt;Employee</title>
<path fill="none" stroke="black" d="M161.21,-287.5C161.21,-287.5 228.79,-287.5 228.79,-287.5"/>
<polygon fill="black" stroke="black" points="228.79,-291 238.79,-287.5 228.79,-284 228.79,-291"/>
<text text-anchor="middle" x="191.5" y="-291.3" font-family="Times,serif" font-size="14.00">*..1</text>
</g>
</g>
</svg>
