<?xml version="1.0" encoding="UTF-8" standalone="no"?>
<!DOCTYPE svg PUBLIC "-//W3C//DTD SVG 1.1//EN"
 "http://www.w3.org/Graphics/SVG/1.1/DTD/svg11.dtd">
<!-- Generated by graphviz version 2.43.0 (0)
 -->
<!-- Title: %3 Pages: 1 -->
<svg width="1313pt" height="77pt"
 viewBox="0.00 0.00 1313.39 76.89" xmlns="http://www.w3.org/2000/svg" xmlns:xlink="http://www.w3.org/1999/xlink">
<g id="graph0" class="graph" transform="scale(1 1) rotate(0) translate(4 72.89)">
<title>%3</title>
<polygon fill="white" stroke="transparent" points="-4,4 -4,-72.89 1309.39,-72.89 1309.39,4 -4,4"/>
<!-- start -->
<g id="node1" class="node">
<title>start</title>
<ellipse fill="none" stroke="black" cx="34.45" cy="-34.45" rx="34.39" ry="34.39"/>
<text text-anchor="middle" x="34.45" y="-30.75" font-family="Times,serif" font-size="14.00">Start</text>
</g>
<!-- track_time -->
<g id="node2" class="node">
<title>track_time</title>
<polygon fill="none" stroke="black" points="298.89,-52.45 104.89,-52.45 104.89,-16.45 298.89,-16.45 298.89,-52.45"/>
<text text-anchor="middle" x="201.89" y="-30.75" font-family="Times,serif" font-size="14.00">Track time &amp; attendance</text>
</g>
<!-- start&#45;&gt;track_time -->
<g id="edge1" class="edge">
<title>start&#45;&gt;track_time</title>
<path fill="none" stroke="black" d="M68.93,-34.45C76.76,-34.45 85.53,-34.45 94.71,-34.45"/>
<polygon fill="black" stroke="black" points="94.81,-37.95 104.81,-34.45 94.81,-30.95 94.81,-37.95"/>
</g>
<!-- prepare_payroll -->
<g id="node3" class="node">
<title>prepare_payroll</title>
<polygon fill="none" stroke="black" points="504.89,-52.45 334.89,-52.45 334.89,-16.45 504.89,-16.45 504.89,-52.45"/>
<text text-anchor="middle" x="419.89" y="-30.75" font-family="Times,serif" font-size="14.00">Prepare payroll entry</text>
</g>
<!-- track_time&#45;&gt;prepare_payroll -->
<g id="edge2" class="edge">
<title>track_time&#45;&gt;prepare_payroll</title>
<path fill="none" stroke="black" d="M299.21,-34.45C307.61,-34.45 316.1,-34.45 324.48,-34.45"/>
<polygon fill="black" stroke="black" points="324.64,-37.95 334.64,-34.45 324.64,-30.95 324.64,-37.95"/>
</g>
<!-- calculate -->
<g id="node4" class="node">
<title>calculate</title>
<polygon fill="none" stroke="black" points="683.89,-52.45 540.89,-52.45 540.89,-16.45 683.89,-16.45 683.89,-52.45"/>
<text text-anchor="middle" x="612.39" y="-30.75" font-family="Times,serif" font-size="14.00">Calculate salaries</text>
</g>
<!-- prepare_payroll&#45;&gt;calculate -->
<g id="edge3" class="edge">
<title>prepare_payroll&#45;&gt;calculate</title>
<path fill="none" stroke="black" d="M505,-34.45C513.51,-34.45 522.13,-34.45 530.6,-34.45"/>
<polygon fill="black" stroke="black" points="530.83,-37.95 540.83,-34.45 530.83,-30.95 530.83,-37.95"/>
</g>
<!-- submit -->
<g id="node5" class="node">
<title>submit</title>
<polygon fill="none" stroke="black" points="841.89,-52.45 719.89,-52.45 719.89,-16.45 841.89,-16.45 841.89,-52.45"/>
<text text-anchor="middle" x="780.89" y="-30.75" font-family="Times,serif" font-size="14.00">Submit payroll</text>
</g>
<!-- calculate&#45;&gt;submit -->
<g id="edge4" class="edge">
<title>calculate&#45;&gt;submit</title>
<path fill="none" stroke="black" d="M684,-34.45C692.45,-34.45 701.07,-34.45 709.51,-34.45"/>
<polygon fill="black" stroke="black" points="709.69,-37.95 719.69,-34.45 709.69,-30.95 709.69,-37.95"/>
</g>
<!-- execute_payments -->
<g id="node6" class="node">
<title>execute_payments</title>
<polygon fill="none" stroke="black" points="1026.89,-52.45 877.89,-52.45 877.89,-16.45 1026.89,-16.45 1026.89,-52.45"/>
<text text-anchor="middle" x="952.39" y="-30.75" font-family="Times,serif" font-size="14.00">Execute payments</text>
</g>
<!-- submit&#45;&gt;execute_payments -->
<g id="edge5" class="edge">
<title>submit&#45;&gt;execute_payments</title>
<path fill="none" stroke="black" d="M842.13,-34.45C850.41,-34.45 859.02,-34.45 867.63,-34.45"/>
<polygon fill="black" stroke="black" points="867.7,-37.95 877.7,-34.45 867.7,-30.95 867.7,-37.95"/>
</g>
<!-- report -->
<g id="node7" class="node">
<title>report</title>
<polygon fill="none" stroke="black" points="1202.89,-52.45 1062.89,-52.45 1062.89,-16.45 1202.89,-16.45 1202.89,-52.45"/>
<text text-anchor="middle" x="1132.89" y="-30.75" font-family="Times,serif" font-size="14.00">Generate reports</text>
</g>
<!-- execute_payments&#45;&gt;report -->
<g id="edge6" class="edge">
<title>execute_payments&#45;&gt;report</title>
<path fill="none" stroke="black" d="M1027.03,-34.45C1035.43,-34.45 1044.01,-34.45 1052.48,-34.45"/>
<polygon fill="black" stroke="black" points="1052.73,-37.95 1062.73,-34.45 1052.73,-30.95 1052.73,-37.95"/>
</g>
<!-- end -->
<g id="node8" class="node">
<title>end</title>
<ellipse fill="none" stroke="black" cx="1272.14" cy="-34.45" rx="29.47" ry="29.47"/>
<ellipse fill="none" stroke="black" cx="1272.14" cy="-34.45" rx="33.5" ry="33.5"/>
<text text-anchor="middle" x="1272.14" y="-30.75" font-family="Times,serif" font-size="14.00">End</text>
</g>
<!-- report&#45;&gt;end -->
<g id="edge7" class="edge">
<title>report&#45;&gt;end</title>
<path fill="none" stroke="black" d="M1202.92,-34.45C1211.74,-34.45 1220.56,-34.45 1228.78,-34.45"/>
<polygon fill="black" stroke="black" points="1228.84,-37.95 1238.84,-34.45 1228.84,-30.95 1228.84,-37.95"/>
</g>
</g>
</svg>
