<?xml version="1.0" encoding="UTF-8" standalone="no"?>
<!DOCTYPE svg PUBLIC "-//W3C//DTD SVG 1.1//EN"
 "http://www.w3.org/Graphics/SVG/1.1/DTD/svg11.dtd">
<!-- Generated by graphviz version 2.43.0 (0)
 -->
<!-- Title: %3 Pages: 1 -->
<svg width="1478pt" height="77pt"
 viewBox="0.00 0.00 1478.39 76.89" xmlns="http://www.w3.org/2000/svg" xmlns:xlink="http://www.w3.org/1999/xlink">
<g id="graph0" class="graph" transform="scale(1 1) rotate(0) translate(4 72.89)">
<title>%3</title>
<polygon fill="white" stroke="transparent" points="-4,4 -4,-72.89 1474.39,-72.89 1474.39,4 -4,4"/>
<!-- start -->
<g id="node1" class="node">
<title>start</title>
<ellipse fill="none" stroke="black" cx="34.45" cy="-34.45" rx="34.39" ry="34.39"/>
<text text-anchor="middle" x="34.45" y="-30.75" font-family="Times,serif" font-size="14.00">Start</text>
</g>
<!-- prepare_invoice -->
<g id="node2" class="node">
<title>prepare_invoice</title>
<polygon fill="none" stroke="black" points="277.89,-52.45 104.89,-52.45 104.89,-16.45 277.89,-16.45 277.89,-52.45"/>
<text text-anchor="middle" x="191.39" y="-30.75" font-family="Times,serif" font-size="14.00">Prepare client invoice</text>
</g>
<!-- start&#45;&gt;prepare_invoice -->
<g id="edge1" class="edge">
<title>start&#45;&gt;prepare_invoice</title>
<path fill="none" stroke="black" d="M69.07,-34.45C76.83,-34.45 85.46,-34.45 94.45,-34.45"/>
<polygon fill="black" stroke="black" points="94.72,-37.95 104.72,-34.45 94.72,-30.95 94.72,-37.95"/>
</g>
<!-- update_sheet -->
<g id="node3" class="node">
<title>update_sheet</title>
<polygon fill="none" stroke="black" points="426.89,-52.45 313.89,-52.45 313.89,-16.45 426.89,-16.45 426.89,-52.45"/>
<text text-anchor="middle" x="370.39" y="-30.75" font-family="Times,serif" font-size="14.00">Update sheet</text>
</g>
<!-- prepare_invoice&#45;&gt;update_sheet -->
<g id="edge2" class="edge">
<title>prepare_invoice&#45;&gt;update_sheet</title>
<path fill="none" stroke="black" d="M278.04,-34.45C286.7,-34.45 295.39,-34.45 303.79,-34.45"/>
<polygon fill="black" stroke="black" points="303.87,-37.95 313.87,-34.45 303.87,-30.95 303.87,-37.95"/>
</g>
<!-- send_client -->
<g id="node4" class="node">
<title>send_client</title>
<polygon fill="none" stroke="black" points="632.89,-52.45 462.89,-52.45 462.89,-16.45 632.89,-16.45 632.89,-52.45"/>
<text text-anchor="middle" x="547.89" y="-30.75" font-family="Times,serif" font-size="14.00">Send invoice to client</text>
</g>
<!-- update_sheet&#45;&gt;send_client -->
<g id="edge3" class="edge">
<title>update_sheet&#45;&gt;send_client</title>
<path fill="none" stroke="black" d="M426.92,-34.45C435.24,-34.45 444.01,-34.45 452.86,-34.45"/>
<polygon fill="black" stroke="black" points="452.87,-37.95 462.87,-34.45 452.87,-30.95 452.87,-37.95"/>
</g>
<!-- monitor_payment -->
<g id="node5" class="node">
<title>monitor_payment</title>
<polygon fill="none" stroke="black" points="808.89,-52.45 668.89,-52.45 668.89,-16.45 808.89,-16.45 808.89,-52.45"/>
<text text-anchor="middle" x="738.89" y="-30.75" font-family="Times,serif" font-size="14.00">Monitor payment</text>
</g>
<!-- send_client&#45;&gt;monitor_payment -->
<g id="edge4" class="edge">
<title>send_client&#45;&gt;monitor_payment</title>
<path fill="none" stroke="black" d="M633.17,-34.45C641.64,-34.45 650.21,-34.45 658.63,-34.45"/>
<polygon fill="black" stroke="black" points="658.79,-37.95 668.79,-34.45 658.79,-30.95 658.79,-37.95"/>
</g>
<!-- log_subcontract -->
<g id="node6" class="node">
<title>log_subcontract</title>
<polygon fill="none" stroke="black" points="1046.89,-52.45 844.89,-52.45 844.89,-16.45 1046.89,-16.45 1046.89,-52.45"/>
<text text-anchor="middle" x="945.89" y="-30.75" font-family="Times,serif" font-size="14.00">Log subcontractor invoice</text>
</g>
<!-- monitor_payment&#45;&gt;log_subcontract -->
<g id="edge5" class="edge">
<title>monitor_payment&#45;&gt;log_subcontract</title>
<path fill="none" stroke="black" d="M809.01,-34.45C817.28,-34.45 825.88,-34.45 834.55,-34.45"/>
<polygon fill="black" stroke="black" points="834.75,-37.95 844.75,-34.45 834.75,-30.95 834.75,-37.95"/>
</g>
<!-- notify_admin -->
<g id="node7" class="node">
<title>notify_admin</title>
<polygon fill="none" stroke="black" points="1192.89,-52.45 1082.89,-52.45 1082.89,-16.45 1192.89,-16.45 1192.89,-52.45"/>
<text text-anchor="middle" x="1137.89" y="-30.75" font-family="Times,serif" font-size="14.00">Notify admin</text>
</g>
<!-- log_subcontract&#45;&gt;notify_admin -->
<g id="edge6" class="edge">
<title>log_subcontract&#45;&gt;notify_admin</title>
<path fill="none" stroke="black" d="M1046.9,-34.45C1055.58,-34.45 1064.2,-34.45 1072.47,-34.45"/>
<polygon fill="black" stroke="black" points="1072.74,-37.95 1082.74,-34.45 1072.74,-30.95 1072.74,-37.95"/>
</g>
<!-- process_payment -->
<g id="node8" class="node">
<title>process_payment</title>
<polygon fill="none" stroke="black" points="1367.89,-52.45 1228.89,-52.45 1228.89,-16.45 1367.89,-16.45 1367.89,-52.45"/>
<text text-anchor="middle" x="1298.39" y="-30.75" font-family="Times,serif" font-size="14.00">Process payment</text>
</g>
<!-- notify_admin&#45;&gt;process_payment -->
<g id="edge7" class="edge">
<title>notify_admin&#45;&gt;process_payment</title>
<path fill="none" stroke="black" d="M1193,-34.45C1201.25,-34.45 1209.9,-34.45 1218.55,-34.45"/>
<polygon fill="black" stroke="black" points="1218.68,-37.95 1228.68,-34.45 1218.68,-30.95 1218.68,-37.95"/>
</g>
<!-- end -->
<g id="node9" class="node">
<title>end</title>
<ellipse fill="none" stroke="black" cx="1437.14" cy="-34.45" rx="29.47" ry="29.47"/>
<ellipse fill="none" stroke="black" cx="1437.14" cy="-34.45" rx="33.5" ry="33.5"/>
<text text-anchor="middle" x="1437.14" y="-30.75" font-family="Times,serif" font-size="14.00">End</text>
</g>
<!-- process_payment&#45;&gt;end -->
<g id="edge8" class="edge">
<title>process_payment&#45;&gt;end</title>
<path fill="none" stroke="black" d="M1368.17,-34.45C1376.77,-34.45 1385.36,-34.45 1393.4,-34.45"/>
<polygon fill="black" stroke="black" points="1393.61,-37.95 1403.61,-34.45 1393.61,-30.95 1393.61,-37.95"/>
</g>
</g>
</svg>
