<?xml version="1.0" encoding="UTF-8" standalone="no"?>
<!DOCTYPE svg PUBLIC "-//W3C//DTD SVG 1.1//EN"
 "http://www.w3.org/Graphics/SVG/1.1/DTD/svg11.dtd">
<!-- Generated by graphviz version 2.43.0 (0)
 -->
<!-- Title: %3 Pages: 1 -->
<svg width="1012pt" height="77pt"
 viewBox="0.00 0.00 1012.39 76.89" xmlns="http://www.w3.org/2000/svg" xmlns:xlink="http://www.w3.org/1999/xlink">
<g id="graph0" class="graph" transform="scale(1 1) rotate(0) translate(4 72.89)">
<title>%3</title>
<polygon fill="white" stroke="transparent" points="-4,4 -4,-72.89 1008.39,-72.89 1008.39,4 -4,4"/>
<!-- start -->
<g id="node1" class="node">
<title>start</title>
<ellipse fill="none" stroke="black" cx="34.45" cy="-34.45" rx="34.39" ry="34.39"/>
<text text-anchor="middle" x="34.45" y="-30.75" font-family="Times,serif" font-size="14.00">Start</text>
</g>
<!-- log_events -->
<g id="node2" class="node">
<title>log_events</title>
<polygon fill="none" stroke="black" points="199.89,-52.45 104.89,-52.45 104.89,-16.45 199.89,-16.45 199.89,-52.45"/>
<text text-anchor="middle" x="152.39" y="-30.75" font-family="Times,serif" font-size="14.00">Log events</text>
</g>
<!-- start&#45;&gt;log_events -->
<g id="edge1" class="edge">
<title>start&#45;&gt;log_events</title>
<path fill="none" stroke="black" d="M68.98,-34.45C76.96,-34.45 85.7,-34.45 94.41,-34.45"/>
<polygon fill="black" stroke="black" points="94.57,-37.95 104.57,-34.45 94.57,-30.95 94.57,-37.95"/>
</g>
<!-- monitor_metrics -->
<g id="node3" class="node">
<title>monitor_metrics</title>
<polygon fill="none" stroke="black" points="367.89,-52.45 235.89,-52.45 235.89,-16.45 367.89,-16.45 367.89,-52.45"/>
<text text-anchor="middle" x="301.89" y="-30.75" font-family="Times,serif" font-size="14.00">Monitor metrics</text>
</g>
<!-- log_events&#45;&gt;monitor_metrics -->
<g id="edge2" class="edge">
<title>log_events&#45;&gt;monitor_metrics</title>
<path fill="none" stroke="black" d="M200.06,-34.45C208.19,-34.45 216.83,-34.45 225.5,-34.45"/>
<polygon fill="black" stroke="black" points="225.66,-37.95 235.66,-34.45 225.66,-30.95 225.66,-37.95"/>
</g>
<!-- analyze_data -->
<g id="node4" class="node">
<title>analyze_data</title>
<polygon fill="none" stroke="black" points="554.89,-52.45 403.89,-52.45 403.89,-16.45 554.89,-16.45 554.89,-52.45"/>
<text text-anchor="middle" x="479.39" y="-30.75" font-family="Times,serif" font-size="14.00">Generate analytics</text>
</g>
<!-- monitor_metrics&#45;&gt;analyze_data -->
<g id="edge3" class="edge">
<title>monitor_metrics&#45;&gt;analyze_data</title>
<path fill="none" stroke="black" d="M368.24,-34.45C376.58,-34.45 385.2,-34.45 393.79,-34.45"/>
<polygon fill="black" stroke="black" points="393.83,-37.95 403.83,-34.45 393.83,-30.95 393.83,-37.95"/>
</g>
<!-- alert -->
<g id="node5" class="node">
<title>alert</title>
<polygon fill="none" stroke="black" points="712.89,-52.45 590.89,-52.45 590.89,-16.45 712.89,-16.45 712.89,-52.45"/>
<text text-anchor="middle" x="651.89" y="-30.75" font-family="Times,serif" font-size="14.00">Alert on issues</text>
</g>
<!-- analyze_data&#45;&gt;alert -->
<g id="edge4" class="edge">
<title>analyze_data&#45;&gt;alert</title>
<path fill="none" stroke="black" d="M555.18,-34.45C563.64,-34.45 572.24,-34.45 580.64,-34.45"/>
<polygon fill="black" stroke="black" points="580.76,-37.95 590.76,-34.45 580.76,-30.95 580.76,-37.95"/>
</g>
<!-- backup -->
<g id="node6" class="node">
<title>backup</title>
<polygon fill="none" stroke="black" points="901.89,-52.45 748.89,-52.45 748.89,-16.45 901.89,-16.45 901.89,-52.45"/>
<text text-anchor="middle" x="825.39" y="-30.75" font-family="Times,serif" font-size="14.00">Backup &amp; recovery</text>
</g>
<!-- alert&#45;&gt;backup -->
<g id="edge5" class="edge">
<title>alert&#45;&gt;backup</title>
<path fill="none" stroke="black" d="M713.36,-34.45C721.61,-34.45 730.2,-34.45 738.79,-34.45"/>
<polygon fill="black" stroke="black" points="738.85,-37.95 748.85,-34.45 738.85,-30.95 738.85,-37.95"/>
</g>
<!-- end -->
<g id="node7" class="node">
<title>end</title>
<ellipse fill="none" stroke="black" cx="971.14" cy="-34.45" rx="29.47" ry="29.47"/>
<ellipse fill="none" stroke="black" cx="971.14" cy="-34.45" rx="33.5" ry="33.5"/>
<text text-anchor="middle" x="971.14" y="-30.75" font-family="Times,serif" font-size="14.00">End</text>
</g>
<!-- backup&#45;&gt;end -->
<g id="edge6" class="edge">
<title>backup&#45;&gt;end</title>
<path fill="none" stroke="black" d="M902.06,-34.45C910.8,-34.45 919.48,-34.45 927.55,-34.45"/>
<polygon fill="black" stroke="black" points="927.79,-37.95 937.78,-34.45 927.78,-30.95 927.79,-37.95"/>
</g>
</g>
</svg>
