<?xml version="1.0" encoding="UTF-8" standalone="no"?>
<!DOCTYPE svg PUBLIC "-//W3C//DTD SVG 1.1//EN"
 "http://www.w3.org/Graphics/SVG/1.1/DTD/svg11.dtd">
<!-- Generated by graphviz version 2.43.0 (0)
 -->
<!-- Title: %3 Pages: 1 -->
<svg width="2464pt" height="144pt"
 viewBox="0.00 0.00 2463.72 144.25" xmlns="http://www.w3.org/2000/svg" xmlns:xlink="http://www.w3.org/1999/xlink">
<g id="graph0" class="graph" transform="scale(1 1) rotate(0) translate(4 140.25)">
<title>%3</title>
<polygon fill="white" stroke="transparent" points="-4,4 -4,-140.25 2459.72,-140.25 2459.72,4 -4,4"/>
<!-- start -->
<g id="node1" class="node">
<title>start</title>
<ellipse fill="none" stroke="black" cx="34.45" cy="-67.25" rx="34.39" ry="34.39"/>
<text text-anchor="middle" x="34.45" y="-63.55" font-family="Times,serif" font-size="14.00">Start</text>
</g>
<!-- gather -->
<g id="node2" class="node">
<title>gather</title>
<polygon fill="none" stroke="black" points="287.89,-85.25 105.89,-85.25 105.89,-49.25 287.89,-49.25 287.89,-85.25"/>
<text text-anchor="middle" x="196.89" y="-63.55" font-family="Times,serif" font-size="14.00">Gather contract details</text>
</g>
<!-- start&#45;&gt;gather -->
<g id="edge1" class="edge">
<title>start&#45;&gt;gather</title>
<path fill="none" stroke="black" d="M69.08,-67.25C77.2,-67.25 86.29,-67.25 95.77,-67.25"/>
<polygon fill="black" stroke="black" points="95.78,-70.75 105.78,-67.25 95.78,-63.75 95.78,-70.75"/>
</g>
<!-- confirm -->
<g id="node3" class="node">
<title>confirm</title>
<polygon fill="none" stroke="black" points="530.89,-85.25 324.89,-85.25 324.89,-49.25 530.89,-49.25 530.89,-85.25"/>
<text text-anchor="middle" x="427.89" y="-63.55" font-family="Times,serif" font-size="14.00">Confirm details with client</text>
</g>
<!-- gather&#45;&gt;confirm -->
<g id="edge2" class="edge">
<title>gather&#45;&gt;confirm</title>
<path fill="none" stroke="black" d="M288.07,-67.25C296.8,-67.25 305.73,-67.25 314.64,-67.25"/>
<polygon fill="black" stroke="black" points="314.68,-70.75 324.68,-67.25 314.68,-63.75 314.68,-70.75"/>
</g>
<!-- subcontract -->
<g id="node4" class="node">
<title>subcontract</title>
<polygon fill="none" stroke="black" points="691.06,-85.25 567.73,-67.25 691.06,-49.25 814.4,-67.25 691.06,-85.25"/>
<text text-anchor="middle" x="691.06" y="-63.55" font-family="Times,serif" font-size="14.00">Subcontracting?</text>
</g>
<!-- confirm&#45;&gt;subcontract -->
<g id="edge3" class="edge">
<title>confirm&#45;&gt;subcontract</title>
<path fill="none" stroke="black" d="M530.99,-67.25C539.72,-67.25 548.63,-67.25 557.55,-67.25"/>
<polygon fill="black" stroke="black" points="557.62,-70.75 567.62,-67.25 557.62,-63.75 557.62,-70.75"/>
</g>
<!-- arrange -->
<g id="node5" class="node">
<title>arrange</title>
<polygon fill="none" stroke="black" points="1540.23,-85.25 1376.23,-85.25 1376.23,-49.25 1540.23,-49.25 1540.23,-85.25"/>
<text text-anchor="middle" x="1458.23" y="-63.55" font-family="Times,serif" font-size="14.00">Arrange subcontract</text>
</g>
<!-- subcontract&#45;&gt;arrange -->
<g id="edge4" class="edge">
<title>subcontract&#45;&gt;arrange</title>
<path fill="none" stroke="black" d="M814.57,-67.25C968.41,-67.25 1228.78,-67.25 1366.13,-67.25"/>
<polygon fill="black" stroke="black" points="1366.21,-70.75 1376.21,-67.25 1366.21,-63.75 1366.21,-70.75"/>
<text text-anchor="middle" x="1054.23" y="-71.05" font-family="Times,serif" font-size="14.00">Yes</text>
</g>
<!-- plan_internal -->
<g id="node6" class="node">
<title>plan_internal</title>
<polygon fill="none" stroke="black" points="1358.23,-39.25 1176.23,-39.25 1176.23,-3.25 1358.23,-3.25 1358.23,-39.25"/>
<text text-anchor="middle" x="1267.23" y="-17.55" font-family="Times,serif" font-size="14.00">Plan internal execution</text>
</g>
<!-- subcontract&#45;&gt;plan_internal -->
<g id="edge5" class="edge">
<title>subcontract&#45;&gt;plan_internal</title>
<path fill="none" stroke="black" d="M737.2,-55.93C764.52,-49.58 800.16,-42.17 832.23,-38.25 946.1,-24.33 1077.9,-20.95 1166.11,-20.5"/>
<polygon fill="black" stroke="black" points="1166.13,-24 1176.11,-20.46 1166.1,-17 1166.13,-24"/>
<text text-anchor="middle" x="882.23" y="-42.05" font-family="Times,serif" font-size="14.00">No</text>
</g>
<!-- find_new -->
<g id="node7" class="node">
<title>find_new</title>
<polygon fill="none" stroke="black" points="1158.23,-136.25 950.23,-136.25 950.23,-100.25 1158.23,-100.25 1158.23,-136.25"/>
<text text-anchor="middle" x="1054.23" y="-114.55" font-family="Times,serif" font-size="14.00">Find &amp; onboard contractor</text>
</g>
<!-- subcontract&#45;&gt;find_new -->
<g id="edge6" class="edge">
<title>subcontract&#45;&gt;find_new</title>
<path fill="none" stroke="black" d="M754.56,-76.07C805.53,-83.27 878.84,-93.62 940.08,-102.27"/>
<polygon fill="black" stroke="black" points="939.8,-105.76 950.19,-103.7 940.78,-98.83 939.8,-105.76"/>
<text text-anchor="middle" x="882.23" y="-104.05" font-family="Times,serif" font-size="14.00">No contractor</text>
</g>
<!-- certify -->
<g id="node8" class="node">
<title>certify</title>
<polygon fill="none" stroke="black" points="1742.23,-51.25 1577.23,-51.25 1577.23,-15.25 1742.23,-15.25 1742.23,-51.25"/>
<text text-anchor="middle" x="1659.73" y="-29.55" font-family="Times,serif" font-size="14.00">Ensure certifications</text>
</g>
<!-- arrange&#45;&gt;certify -->
<g id="edge7" class="edge">
<title>arrange&#45;&gt;certify</title>
<path fill="none" stroke="black" d="M1540.37,-53.42C1549.15,-51.92 1558.13,-50.39 1567.02,-48.88"/>
<polygon fill="black" stroke="black" points="1567.74,-52.3 1577.01,-47.17 1566.56,-45.4 1567.74,-52.3"/>
</g>
<!-- plan_internal&#45;&gt;certify -->
<g id="edge8" class="edge">
<title>plan_internal&#45;&gt;certify</title>
<path fill="none" stroke="black" d="M1358.31,-24.02C1420.82,-25.94 1503.84,-28.49 1566.76,-30.42"/>
<polygon fill="black" stroke="black" points="1566.98,-33.93 1577.08,-30.74 1567.19,-26.93 1566.98,-33.93"/>
</g>
<!-- find_new&#45;&gt;arrange -->
<g id="edge9" class="edge">
<title>find_new&#45;&gt;arrange</title>
<path fill="none" stroke="black" d="M1158.37,-106.14C1217,-99.14 1291.76,-90 1358.23,-81.25 1360.88,-80.9 1363.57,-80.54 1366.29,-80.18"/>
<polygon fill="black" stroke="black" points="1366.76,-83.64 1376.2,-78.83 1365.82,-76.71 1366.76,-83.64"/>
</g>
<!-- create_project -->
<g id="node9" class="node">
<title>create_project</title>
<polygon fill="none" stroke="black" points="1957.23,-51.25 1779.23,-51.25 1779.23,-15.25 1957.23,-15.25 1957.23,-51.25"/>
<text text-anchor="middle" x="1868.23" y="-29.55" font-family="Times,serif" font-size="14.00">Create Service Project</text>
</g>
<!-- certify&#45;&gt;create_project -->
<g id="edge10" class="edge">
<title>certify&#45;&gt;create_project</title>
<path fill="none" stroke="black" d="M1742.34,-33.25C1751.11,-33.25 1760.09,-33.25 1769.02,-33.25"/>
<polygon fill="black" stroke="black" points="1769.07,-36.75 1779.07,-33.25 1769.07,-29.75 1769.07,-36.75"/>
</g>
<!-- link_objects -->
<g id="node10" class="node">
<title>link_objects</title>
<polygon fill="none" stroke="black" points="2158.23,-51.25 1994.23,-51.25 1994.23,-15.25 2158.23,-15.25 2158.23,-51.25"/>
<text text-anchor="middle" x="2076.23" y="-29.55" font-family="Times,serif" font-size="14.00">Link Service Objects</text>
</g>
<!-- create_project&#45;&gt;link_objects -->
<g id="edge11" class="edge">
<title>create_project&#45;&gt;link_objects</title>
<path fill="none" stroke="black" d="M1957.49,-33.25C1966.2,-33.25 1975.06,-33.25 1983.8,-33.25"/>
<polygon fill="black" stroke="black" points="1984,-36.75 1994,-33.25 1984,-29.75 1984,-36.75"/>
</g>
<!-- notify -->
<g id="node11" class="node">
<title>notify</title>
<polygon fill="none" stroke="black" points="2352.23,-51.25 2195.23,-51.25 2195.23,-15.25 2352.23,-15.25 2352.23,-51.25"/>
<text text-anchor="middle" x="2273.73" y="-29.55" font-family="Times,serif" font-size="14.00">Notify stakeholders</text>
</g>
<!-- link_objects&#45;&gt;notify -->
<g id="edge12" class="edge">
<title>link_objects&#45;&gt;notify</title>
<path fill="none" stroke="black" d="M2158.44,-33.25C2167.19,-33.25 2176.11,-33.25 2184.93,-33.25"/>
<polygon fill="black" stroke="black" points="2185.22,-36.75 2195.22,-33.25 2185.22,-29.75 2185.22,-36.75"/>
</g>
<!-- end -->
<g id="node12" class="node">
<title>end</title>
<ellipse fill="none" stroke="black" cx="2422.48" cy="-33.25" rx="29.47" ry="29.47"/>
<ellipse fill="none" stroke="black" cx="2422.48" cy="-33.25" rx="33.5" ry="33.5"/>
<text text-anchor="middle" x="2422.48" y="-29.55" font-family="Times,serif" font-size="14.00">End</text>
</g>
<!-- notify&#45;&gt;end -->
<g id="edge13" class="edge">
<title>notify&#45;&gt;end</title>
<path fill="none" stroke="black" d="M2352.4,-33.25C2361.49,-33.25 2370.49,-33.25 2378.84,-33.25"/>
<polygon fill="black" stroke="black" points="2379.03,-36.75 2389.03,-33.25 2379.03,-29.75 2379.03,-36.75"/>
</g>
</g>
</svg>
