<?xml version="1.0" encoding="UTF-8" standalone="no"?>
<!DOCTYPE svg PUBLIC "-//W3C//DTD SVG 1.1//EN"
 "http://www.w3.org/Graphics/SVG/1.1/DTD/svg11.dtd">
<!-- Generated by graphviz version 2.43.0 (0)
 -->
<!-- Title: %3 Pages: 1 -->
<svg width="1543pt" height="77pt"
 viewBox="0.00 0.00 1543.39 76.89" xmlns="http://www.w3.org/2000/svg" xmlns:xlink="http://www.w3.org/1999/xlink">
<g id="graph0" class="graph" transform="scale(1 1) rotate(0) translate(4 72.89)">
<title>%3</title>
<polygon fill="white" stroke="transparent" points="-4,4 -4,-72.89 1539.39,-72.89 1539.39,4 -4,4"/>
<!-- start -->
<g id="node1" class="node">
<title>start</title>
<ellipse fill="none" stroke="black" cx="34.45" cy="-34.45" rx="34.39" ry="34.39"/>
<text text-anchor="middle" x="34.45" y="-30.75" font-family="Times,serif" font-size="14.00">Start</text>
</g>
<!-- log_request -->
<g id="node2" class="node">
<title>log_request</title>
<polygon fill="none" stroke="black" points="262.89,-52.45 104.89,-52.45 104.89,-16.45 262.89,-16.45 262.89,-52.45"/>
<text text-anchor="middle" x="183.89" y="-30.75" font-family="Times,serif" font-size="14.00">Log service request</text>
</g>
<!-- start&#45;&gt;log_request -->
<g id="edge1" class="edge">
<title>start&#45;&gt;log_request</title>
<path fill="none" stroke="black" d="M68.9,-34.45C76.75,-34.45 85.46,-34.45 94.48,-34.45"/>
<polygon fill="black" stroke="black" points="94.77,-37.95 104.77,-34.45 94.77,-30.95 94.77,-37.95"/>
</g>
<!-- triage -->
<g id="node3" class="node">
<title>triage</title>
<polygon fill="none" stroke="black" points="495.89,-52.45 298.89,-52.45 298.89,-16.45 495.89,-16.45 495.89,-52.45"/>
<text text-anchor="middle" x="397.39" y="-30.75" font-family="Times,serif" font-size="14.00">Triage &amp; assign engineer</text>
</g>
<!-- log_request&#45;&gt;triage -->
<g id="edge2" class="edge">
<title>log_request&#45;&gt;triage</title>
<path fill="none" stroke="black" d="M263.05,-34.45C271.42,-34.45 280.04,-34.45 288.68,-34.45"/>
<polygon fill="black" stroke="black" points="288.82,-37.95 298.82,-34.45 288.82,-30.95 288.82,-37.95"/>
</g>
<!-- notify -->
<g id="node4" class="node">
<title>notify</title>
<polygon fill="none" stroke="black" points="688.89,-52.45 531.89,-52.45 531.89,-16.45 688.89,-16.45 688.89,-52.45"/>
<text text-anchor="middle" x="610.39" y="-30.75" font-family="Times,serif" font-size="14.00">Notify stakeholders</text>
</g>
<!-- triage&#45;&gt;notify -->
<g id="edge3" class="edge">
<title>triage&#45;&gt;notify</title>
<path fill="none" stroke="black" d="M496.17,-34.45C504.68,-34.45 513.25,-34.45 521.67,-34.45"/>
<polygon fill="black" stroke="black" points="521.85,-37.95 531.85,-34.45 521.85,-30.95 521.85,-37.95"/>
</g>
<!-- execute -->
<g id="node5" class="node">
<title>execute</title>
<polygon fill="none" stroke="black" points="915.89,-52.45 724.89,-52.45 724.89,-16.45 915.89,-16.45 915.89,-52.45"/>
<text text-anchor="middle" x="820.39" y="-30.75" font-family="Times,serif" font-size="14.00">Engineer performs work</text>
</g>
<!-- notify&#45;&gt;execute -->
<g id="edge4" class="edge">
<title>notify&#45;&gt;execute</title>
<path fill="none" stroke="black" d="M689.14,-34.45C697.52,-34.45 706.14,-34.45 714.76,-34.45"/>
<polygon fill="black" stroke="black" points="714.88,-37.95 724.88,-34.45 714.88,-30.95 714.88,-37.95"/>
</g>
<!-- update_status -->
<g id="node6" class="node">
<title>update_status</title>
<polygon fill="none" stroke="black" points="1069.89,-52.45 951.89,-52.45 951.89,-16.45 1069.89,-16.45 1069.89,-52.45"/>
<text text-anchor="middle" x="1010.89" y="-30.75" font-family="Times,serif" font-size="14.00">Update status</text>
</g>
<!-- execute&#45;&gt;update_status -->
<g id="edge5" class="edge">
<title>execute&#45;&gt;update_status</title>
<path fill="none" stroke="black" d="M915.92,-34.45C924.61,-34.45 933.29,-34.45 941.67,-34.45"/>
<polygon fill="black" stroke="black" points="941.73,-37.95 951.73,-34.45 941.73,-30.95 941.73,-37.95"/>
</g>
<!-- create_report -->
<g id="node7" class="node">
<title>create_report</title>
<polygon fill="none" stroke="black" points="1281.89,-52.45 1105.89,-52.45 1105.89,-16.45 1281.89,-16.45 1281.89,-52.45"/>
<text text-anchor="middle" x="1193.89" y="-30.75" font-family="Times,serif" font-size="14.00">Create Service Report</text>
</g>
<!-- update_status&#45;&gt;create_report -->
<g id="edge6" class="edge">
<title>update_status&#45;&gt;create_report</title>
<path fill="none" stroke="black" d="M1070.16,-34.45C1078.33,-34.45 1086.9,-34.45 1095.56,-34.45"/>
<polygon fill="black" stroke="black" points="1095.74,-37.95 1105.74,-34.45 1095.74,-30.95 1095.74,-37.95"/>
</g>
<!-- close_request -->
<g id="node8" class="node">
<title>close_request</title>
<polygon fill="none" stroke="black" points="1432.89,-52.45 1317.89,-52.45 1317.89,-16.45 1432.89,-16.45 1432.89,-52.45"/>
<text text-anchor="middle" x="1375.39" y="-30.75" font-family="Times,serif" font-size="14.00">Close request</text>
</g>
<!-- create_report&#45;&gt;close_request -->
<g id="edge7" class="edge">
<title>create_report&#45;&gt;close_request</title>
<path fill="none" stroke="black" d="M1282.01,-34.45C1290.65,-34.45 1299.32,-34.45 1307.7,-34.45"/>
<polygon fill="black" stroke="black" points="1307.76,-37.95 1317.76,-34.45 1307.76,-30.95 1307.76,-37.95"/>
</g>
<!-- end -->
<g id="node9" class="node">
<title>end</title>
<ellipse fill="none" stroke="black" cx="1502.14" cy="-34.45" rx="29.47" ry="29.47"/>
<ellipse fill="none" stroke="black" cx="1502.14" cy="-34.45" rx="33.5" ry="33.5"/>
<text text-anchor="middle" x="1502.14" y="-30.75" font-family="Times,serif" font-size="14.00">End</text>
</g>
<!-- close_request&#45;&gt;end -->
<g id="edge8" class="edge">
<title>close_request&#45;&gt;end</title>
<path fill="none" stroke="black" d="M1432.93,-34.45C1441.54,-34.45 1450.3,-34.45 1458.55,-34.45"/>
<polygon fill="black" stroke="black" points="1458.67,-37.95 1468.67,-34.45 1458.67,-30.95 1458.67,-37.95"/>
</g>
</g>
</svg>
