<?xml version="1.0" encoding="UTF-8" standalone="no"?>
<!DOCTYPE svg PUBLIC "-//W3C//DTD SVG 1.1//EN"
 "http://www.w3.org/Graphics/SVG/1.1/DTD/svg11.dtd">
<!-- Generated by graphviz version 2.43.0 (0)
 -->
<!-- Title: %3 Pages: 1 -->
<svg width="1249pt" height="77pt"
 viewBox="0.00 0.00 1249.39 76.89" xmlns="http://www.w3.org/2000/svg" xmlns:xlink="http://www.w3.org/1999/xlink">
<g id="graph0" class="graph" transform="scale(1 1) rotate(0) translate(4 72.89)">
<title>%3</title>
<polygon fill="white" stroke="transparent" points="-4,4 -4,-72.89 1245.39,-72.89 1245.39,4 -4,4"/>
<!-- start -->
<g id="node1" class="node">
<title>start</title>
<ellipse fill="none" stroke="black" cx="34.45" cy="-34.45" rx="34.39" ry="34.39"/>
<text text-anchor="middle" x="34.45" y="-30.75" font-family="Times,serif" font-size="14.00">Start</text>
</g>
<!-- create_report -->
<g id="node2" class="node">
<title>create_report</title>
<polygon fill="none" stroke="black" points="280.89,-52.45 104.89,-52.45 104.89,-16.45 280.89,-16.45 280.89,-52.45"/>
<text text-anchor="middle" x="192.89" y="-30.75" font-family="Times,serif" font-size="14.00">Create Service Report</text>
</g>
<!-- start&#45;&gt;create_report -->
<g id="edge1" class="edge">
<title>start&#45;&gt;create_report</title>
<path fill="none" stroke="black" d="M69.01,-34.45C76.85,-34.45 85.6,-34.45 94.72,-34.45"/>
<polygon fill="black" stroke="black" points="94.72,-37.95 104.72,-34.45 94.72,-30.95 94.72,-37.95"/>
</g>
<!-- add_items -->
<g id="node3" class="node">
<title>add_items</title>
<polygon fill="none" stroke="black" points="555.89,-52.45 316.89,-52.45 316.89,-16.45 555.89,-16.45 555.89,-52.45"/>
<text text-anchor="middle" x="436.39" y="-30.75" font-family="Times,serif" font-size="14.00">Add work items &amp; attachments</text>
</g>
<!-- create_report&#45;&gt;add_items -->
<g id="edge2" class="edge">
<title>create_report&#45;&gt;add_items</title>
<path fill="none" stroke="black" d="M281.08,-34.45C289.43,-34.45 298.02,-34.45 306.65,-34.45"/>
<polygon fill="black" stroke="black" points="306.81,-37.95 316.81,-34.45 306.81,-30.95 306.81,-37.95"/>
</g>
<!-- validate -->
<g id="node4" class="node">
<title>validate</title>
<polygon fill="none" stroke="black" points="737.89,-52.45 591.89,-52.45 591.89,-16.45 737.89,-16.45 737.89,-52.45"/>
<text text-anchor="middle" x="664.89" y="-30.75" font-family="Times,serif" font-size="14.00">Validate &amp; submit</text>
</g>
<!-- add_items&#45;&gt;validate -->
<g id="edge3" class="edge">
<title>add_items&#45;&gt;validate</title>
<path fill="none" stroke="black" d="M555.95,-34.45C564.63,-34.45 573.26,-34.45 581.65,-34.45"/>
<polygon fill="black" stroke="black" points="581.74,-37.95 591.74,-34.45 581.74,-30.95 581.74,-37.95"/>
</g>
<!-- link_request -->
<g id="node5" class="node">
<title>link_request</title>
<polygon fill="none" stroke="black" points="948.89,-52.45 773.89,-52.45 773.89,-16.45 948.89,-16.45 948.89,-52.45"/>
<text text-anchor="middle" x="861.39" y="-30.75" font-family="Times,serif" font-size="14.00">Link report to request</text>
</g>
<!-- validate&#45;&gt;link_request -->
<g id="edge4" class="edge">
<title>validate&#45;&gt;link_request</title>
<path fill="none" stroke="black" d="M738.04,-34.45C746.43,-34.45 755.09,-34.45 763.75,-34.45"/>
<polygon fill="black" stroke="black" points="763.89,-37.95 773.89,-34.45 763.89,-30.95 763.89,-37.95"/>
</g>
<!-- notify -->
<g id="node6" class="node">
<title>notify</title>
<polygon fill="none" stroke="black" points="1138.89,-52.45 984.89,-52.45 984.89,-16.45 1138.89,-16.45 1138.89,-52.45"/>
<text text-anchor="middle" x="1061.89" y="-30.75" font-family="Times,serif" font-size="14.00">Notify client/admin</text>
</g>
<!-- link_request&#45;&gt;notify -->
<g id="edge5" class="edge">
<title>link_request&#45;&gt;notify</title>
<path fill="none" stroke="black" d="M949.17,-34.45C957.63,-34.45 966.2,-34.45 974.65,-34.45"/>
<polygon fill="black" stroke="black" points="974.88,-37.95 984.88,-34.45 974.88,-30.95 974.88,-37.95"/>
</g>
<!-- end -->
<g id="node7" class="node">
<title>end</title>
<ellipse fill="none" stroke="black" cx="1208.14" cy="-34.45" rx="29.47" ry="29.47"/>
<ellipse fill="none" stroke="black" cx="1208.14" cy="-34.45" rx="33.5" ry="33.5"/>
<text text-anchor="middle" x="1208.14" y="-30.75" font-family="Times,serif" font-size="14.00">End</text>
</g>
<!-- notify&#45;&gt;end -->
<g id="edge6" class="edge">
<title>notify&#45;&gt;end</title>
<path fill="none" stroke="black" d="M1139.24,-34.45C1147.89,-34.45 1156.45,-34.45 1164.44,-34.45"/>
<polygon fill="black" stroke="black" points="1164.56,-37.95 1174.56,-34.45 1164.56,-30.95 1164.56,-37.95"/>
</g>
</g>
</svg>
